<svg id="Layer_2" height="512" viewBox="0 0 512 512" width="512" xmlns="http://www.w3.org/2000/svg" data-name="Layer 2"><path d="m32 72h256v240h-256z" fill="#5915af"/><path d="m96 400h-64v-88h280v88h-136" fill="#f2c033"/><path d="m448 400h32v-96l-64-104h-104v200h56" fill="#f2c033"/><circle cx="136" cy="400" fill="#5915af" r="40"/><circle cx="408" cy="400" fill="#5915af" r="40"/><path d="m336 224v48h88l-24-48z" fill="#f4e9ce"/><g opacity=".2"><path d="m312 256 120-32-16-24h-104z" fill="#fff"/></g><path d="m248 176a64 64 0 0 0 -64-64h-48a64 64 0 0 0 -64 64z" fill="#ad7907"/><path d="m72 224c0 35.346 28.654 48 64 48h48c35.346 0 64-12.654 64-48z" fill="#ad7907"/><path d="m32 244.625c108.034-24.933 204.313-90.49 256-130.953v-41.672h-256z" fill="#fff" opacity=".2"/><g fill="#1a063f"><path d="m72 184h176a8 8 0 0 0 8-8 72.082 72.082 0 0 0 -72-72h-48a72.082 72.082 0 0 0 -72 72 8 8 0 0 0 8 8zm64-64v16h16v-16h16v16h16v-16a56.089 56.089 0 0 1 55.431 48h-158.862a56.089 56.089 0 0 1 55.431-48z"/><path d="m136 280h48c45.757 0 72-20.411 72-56a8 8 0 0 0 -8-8h-176a8 8 0 0 0 -8 8c0 35.589 26.243 56 72 56zm103.384-48c-1.612 9.829-6.4 17.253-14.511 22.562-9.433 6.174-23.566 9.438-40.873 9.438h-48c-17.307 0-31.44-3.264-40.873-9.438-8.109-5.309-12.9-12.732-14.511-22.562z"/><path d="m120 144h16v16h-16z"/><path d="m152 144h16v16h-16z"/><path d="m184 144h16v16h-16z"/><path d="m72 192h176v16h-176z"/><path d="m422.813 195.807a8 8 0 0 0 -6.813-3.807h-104a8 8 0 0 0 -8 8v104h-8v-232a8 8 0 0 0 -8-8h-256a8 8 0 0 0 -8 8v328a8 8 0 0 0 8 8h56.679a47.99 47.99 0 0 0 94.641 0h177.359a47.99 47.99 0 0 0 94.641 0h24.68a8 8 0 0 0 8-8v-96a8 8 0 0 0 -1.187-4.193zm-142.813-115.807v224h-240v-224zm-144 352a32 32 0 1 1 32-32 32.036 32.036 0 0 1 -32 32zm0-80a48.069 48.069 0 0 0 -47.321 40h-48.679v-72h264v72h-120.679a48.069 48.069 0 0 0 -47.321-40zm272 80a32 32 0 1 1 32-32 32.036 32.036 0 0 1 -32 32zm64-40h-16.679a47.99 47.99 0 0 0 -94.641 0h-40.68v-184h91.529l60.471 98.264z"/><path d="m400 216h-64a8 8 0 0 0 -8 8v48a8 8 0 0 0 8 8h88a8 8 0 0 0 7.155-11.578l-24-48a8 8 0 0 0 -7.155-4.422zm-56 48v-32h51.056l16 32z"/><path d="m224 336h24v16h-24z"/><path d="m264 336h24v16h-24z"/><path d="m128 392h16v16h-16z"/><path d="m400 392h16v16h-16z"/></g></svg>