<?xml version="1.0" encoding="iso-8859-1"?>
<!-- Generator: Adobe Illustrator 19.0.0, SVG Export Plug-In . SVG Version: 6.00 Build 0)  -->
<svg version="1.1" id="Capa_1" xmlns="http://www.w3.org/2000/svg" xmlns:xlink="http://www.w3.org/1999/xlink" x="0px" y="0px"
	 viewBox="0 0 472.1 472.1" style="enable-background:new 0 0 472.1 472.1;" xml:space="preserve">
<path style="fill:#ED664C;" d="M206.9,198.05v15.9c0,15-13.9,29.1-28.9,29.1h-42.1v83l-0.2,0.1c6.4,6.8,10.4,16.1,10.4,26.2
	c0,21.1-17.1,38.4-38.3,38.4s-38.3-17.1-38.3-38.3c0-10.1,4.3-19.3,10.7-26.1c0.1-0.1,0.7-0.2,0.7-0.3v-83H37.7
	c-15,0-27.7-14.1-27.7-29.1v-15.9h194H206.9z"/>
<path d="M156.1,352.35c0-10.8-3.1-21.2-10.1-29.7v-69.6h32.1c20.4,0,38.9-18.6,38.9-39.1V82.05c0-5.5-4.5-10-10-10s-10,4.5-10,10
	v106h-5V81.35c0-5.5-4.5-10-10-10s-10,4.5-10,10v106.7h-5V81.35c0-5.5-4.5-10-10-10s-10,4.5-10,10v106.7h-5V81.35
	c0-5.5-4.5-10-10-10s-10,4.5-10,10v106.7h-4V81.35c0-5.5-4.5-10-10-10s-10,4.5-10,10v106.7h-5V81.35c0-5.5-4.5-10-10-10
	s-10,4.5-10,10v106.7h-5V81.35c0-5.5-4.5-10-10-10s-10,4.5-10,10v106.7h-4V81.35c0-5.5-4.5-10-10-10s-10,4.5-10,10v106.7h-4v-106
	c0-5.5-4.5-10-10-10s-10,4.5-10,10v131.9c0,20.8,17.6,39.1,37.7,39.1H71v68.7c-7,8.9-11.4,19.6-11.4,30.7
	c0,26.6,21.7,48.3,48.3,48.3S156.1,379.05,156.1,352.35z M79.5,352.45c0-6.4,2.5-12.8,6.9-18.1c3.3-2.2,4.5-5.6,4.5-8.4v-83
	c0-5.5-4.5-10-10.1-10H37.7c-9.1,0-17.7-9.3-17.7-19.1v-5.8h177v5.9c0,9.4-9.6,19.1-18.9,19.1H136c-5.5,0-9.9,4.5-9.9,10v81.1
	c0,0.1-0.1,0.3-0.1,0.4c-0.5,3.1,0.4,6.2,2.6,8.4c4.9,5.3,7.7,12.2,7.7,19.4c0,15.6-12.7,28.3-28.3,28.3
	C92.2,380.75,79.5,368.05,79.5,352.45z"/>
<path d="M419.5,282.85c-20.2,0-37.7,11.4-46.5,28.2l-28.6-61.1l71-151.6c2.3-5,0.2-11-4.8-13.3s-11-0.2-13.3,4.8l-63.9,136.5
	l-63.9-136.5c-2.3-5-8.3-7.2-13.3-4.8c-5,2.3-7.2,8.3-4.8,13.3l71,151.6l-28.7,61.1c-8.8-16.7-26.3-28.2-46.5-28.2
	c-29,0-52.5,23.6-52.5,52.5c0,29,23.6,52.5,52.5,52.5c24,0,44.4-16.2,50.6-38.3l35.6-76l35.6,76c6.2,22.1,26.5,38.4,50.6,38.4
	c29,0,52.5-23.6,52.5-52.5C472.1,306.45,448.5,282.85,419.5,282.85z M247.2,367.95c-17.9,0-32.5-14.6-32.5-32.5s14.6-32.5,32.5-32.5
	s32.5,14.6,32.5,32.5S265.1,367.95,247.2,367.95z M419.5,367.95c-17.9,0-32.5-14.6-32.5-32.5s14.6-32.5,32.5-32.5
	s32.5,14.6,32.5,32.5S437.5,367.95,419.5,367.95z"/>
<g>
</g>
<g>
</g>
<g>
</g>
<g>
</g>
<g>
</g>
<g>
</g>
<g>
</g>
<g>
</g>
<g>
</g>
<g>
</g>
<g>
</g>
<g>
</g>
<g>
</g>
<g>
</g>
<g>
</g>
</svg>
