<svg id="Layer_1_1_" enable-background="new 0 0 64 64" height="512" viewBox="0 0 64 64" width="512" xmlns="http://www.w3.org/2000/svg"><path d="m46 6h8v14h-8z" fill="#9c5f20"/><path d="m54 18.931-22-15.931-29 21h5v37h48v-37h5z" fill="#57a7e6"/><circle cx="29" cy="43" fill="#fff" r="12"/><g fill="#9c5f20"><path d="m21.371 44.055s-1.941 5.675-1.942 5.677c-.326.953-1.016 1.795-1.609 2.621-1.828 1.874-4.638 2.641-7.28 1.737l13.246 4.531c3.658 1.251 7.638-.7 8.889-4.357l1.942-5.677z"/><path d="m21.144 26.344h26v4h-26z" transform="matrix(.324 -.946 .946 .324 -3.725 51.476)"/><path d="m39.647 12.259c-1.045-.358-2.182.2-2.54 1.245l-.647 1.892 3.785 1.295.647-1.892c.357-1.045-.2-2.183-1.245-2.54z"/><path d="m21.695 43.109-.324.946 5.677 1.942 3.785 1.295 3.785 1.295.324-.946c.894-2.613-.5-5.455-3.112-6.349l-3.785-1.295c-2.613-.894-5.456.499-6.35 3.112z"/></g><path d="m55 18.42v-12.42c0-.552-.448-1-1-1h-8c-.552 0-1 .448-1 1v5.179l-12.414-8.989c-.35-.253-.823-.253-1.173 0l-29 21c-.351.254-.499.706-.365 1.118.134.413.518.692.952.692h4v36c0 .552.448 1 1 1h48c.552 0 1-.448 1-1v-36h4c.434 0 .818-.279.951-.692.134-.412-.014-.864-.365-1.118zm-8-11.42h6v9.972l-6-4.345zm9 16h-6v2h5v35h-28.906c1.192-.005 2.378-.278 3.479-.818 1.919-.941 3.356-2.572 4.048-4.594l1.942-5.677.324-.946c.519-1.517.416-3.144-.29-4.583-.556-1.134-1.442-2.032-2.531-2.62l8.123-23.747.647-1.892c.536-1.564-.302-3.274-1.867-3.81-1.566-.534-3.274.302-3.81 1.868l-.647 1.892-8.121 23.738c-1.222-.202-2.474-.026-3.608.53-1.439.706-2.518 1.929-3.036 3.445l-.324.946-1.942 5.677c-.093.272-.206.539-.335.793l1.781.908c.172-.337.323-.692.446-1.054l1.619-4.731 3.784 1.295-.971 2.839 1.893.647.971-2.839 1.892.647-1.942 5.677c-.892 2.607-3.737 4.003-6.346 3.113l-5.411-1.851c.989-.407 1.903-1.014 2.673-1.803l-1.432-1.396c-1.61 1.651-4.062 2.234-6.241 1.489-.524-.178-1.091.1-1.27.623-.179.522.1 1.091.623 1.27l10.408 3.56c.001 0 .003.001.004.001l2.835.97c.841.288 1.709.43 2.573.433h-17.035v-35h5v-2h-6-1.914l25.914-18.765 25.914 18.765zm-33.358 20.433c.713-2.086 2.992-3.206 5.079-2.49l3.785 1.295c1.011.346 1.827 1.064 2.297 2.024.47.959.539 2.044.193 3.055zm6.672-4.059 7.768-22.708 1.892.647-7.768 22.708-.946-.324zm10.631-24.899-.323.946-1.893-.647.323-.946c.179-.522.748-.8 1.27-.624.523.18.802.749.623 1.271zm-6.597 34.734-1.618 4.73c-.519 1.517-1.597 2.74-3.036 3.446-.722.354-1.492.556-2.271.604 1.396-.818 2.527-2.103 3.091-3.75l1.942-5.677z"/><path d="m23.783 51.62h2v2h-2z" transform="matrix(.324 -.946 .946 .324 -33.027 59.037)"/><path d="m44 32h2v2h-2z"/><path d="m46 34h2v2h-2z"/><path d="m44 36h2v2h-2z"/><path d="m42 34h2v2h-2z"/><path d="m22 21h2v2h-2z"/><path d="m24 23h2v2h-2z"/><path d="m22 25h2v2h-2z"/><path d="m20 23h2v2h-2z"/></svg>