<svg height="512" viewBox="0 0 64 64" width="512" xmlns="http://www.w3.org/2000/svg"><g id="Filled_outline" data-name="Filled outline"><path d="m58 33h-52c-1.829 0-3.259 1.189-3 3l3 22c.258 1.612 2.367 3 4 3h44c1.633 0 3.742-1.388 4-3l3-22c.259-1.811-1.171-3-3-3zm-23 10h-6a3 3 0 0 1 0-6h6a3 3 0 0 1 0 6z" fill="#d3843d"/><rect fill="#5f79ba" height="10" rx="5" width="48" x="8" y="23"/><rect fill="#50b4f8" height="10" rx="5" width="36" x="12" y="13"/><rect fill="#c8d952" height="10" rx="5" width="30" x="22" y="3"/><path d="m58 32h-2.54a5.99 5.99 0 0 0 -4.46-10h-3.54a5.963 5.963 0 0 0 -.021-8.022 6 6 0 0 0 -.439-11.978h-20a5.99 5.99 0 0 0 -4.46 10h-5.54a5.989 5.989 0 0 0 -4.439 10.022 5.985 5.985 0 0 0 -4.021 9.978h-2.54a4.2 4.2 0 0 0 -3.208 1.343 3.452 3.452 0 0 0 -.783 2.792l3 22.023c.349 2.163 2.969 3.842 4.991 3.842h44c2.022 0 4.642-1.679 4.991-3.865l3-21.993a3.456 3.456 0 0 0 -.782-2.8 4.2 4.2 0 0 0 -3.209-1.342zm-31-28h20a4 4 0 0 1 0 8h-20a4 4 0 0 1 0-8zm-10 10h26a4 4 0 0 1 0 8h-26a4 4 0 0 1 0-8zm-4 10h38a4 4 0 0 1 0 8h-38a4 4 0 0 1 0-8zm47.009 11.865-3 21.977a3.36 3.36 0 0 1 -3.009 2.158h-44c-1.271 0-2.848-1.129-3.009-2.135l-3-22.007a1.445 1.445 0 0 1 .313-1.2 2.22 2.22 0 0 1 1.696-.658h52a2.22 2.22 0 0 1 1.7.653 1.45 1.45 0 0 1 .309 1.212z"/><path d="m29 44h6a4 4 0 0 0 0-8h-6a4 4 0 0 0 0 8zm0-6h6a2 2 0 0 1 0 4h-6a2 2 0 0 1 0-4z"/><path d="m9 56h4v2h-4z"/><path d="m15 56h4v2h-4z"/><path d="m21 56h4v2h-4z"/><path d="m27 56h4v2h-4z"/><path d="m33 56h4v2h-4z"/><path d="m39 56h4v2h-4z"/><path d="m45 56h4v2h-4z"/><path d="m51 56h4v2h-4z"/><path d="m12 52h4v2h-4z"/><path d="m18 52h4v2h-4z"/><path d="m24 52h4v2h-4z"/><path d="m30 52h4v2h-4z"/><path d="m36 52h4v2h-4z"/><path d="m42 52h4v2h-4z"/><path d="m48 52h4v2h-4z"/><path d="m26 9h22a1 1 0 0 0 0-2h-22a1 1 0 0 0 0 2z"/><path d="m36 19h8a1 1 0 0 0 0-2h-8a1 1 0 0 0 0 2z"/><path d="m12 29h15a1 1 0 0 0 0-2h-15a1 1 0 0 0 0 2z"/><path d="m47 29h5a1 1 0 0 0 0-2h-5a1 1 0 0 0 0 2z"/><path d="m16 19h7a1 1 0 0 0 0-2h-7a1 1 0 0 0 0 2z"/></g></svg>