<svg id="Capa_1" enable-background="new 0 0 512 512" height="512" viewBox="0 0 512 512" width="512" xmlns="http://www.w3.org/2000/svg"><g><g><g clip-rule="evenodd" fill-rule="evenodd"><path d="m304.891 107.572c27.52 0 50.036-22.516 50.036-50.036v-50.036h-147.818c-27.52 0-50.036 22.516-50.036 50.036v50.036z" fill="#e68f5e"/><path d="m304.891 107.572 50.036 39.846v-89.882c-.001 27.52-22.517 50.036-50.036 50.036zm-147.817 39.846 50.036-39.846h-50.036z" fill="#e68f5e"/><path d="m219.195 299.419h73.61l62.121-62.119v-89.882l-32.122 69.502-29.999-15h-68.508l-35.101 15-32.122-69.502v89.882z" fill="#e68f5e"/><path d="m189.196 216.92 35.101-15h68.508l29.999 15 32.122-69.502-50.035-39.846h-97.782l-50.035 39.846z" fill="#fbf2e2"/><path d="m137.902 198.415 19.172 7.5v-75.844h-19.172c-8.249 0-15 6.75-15 15v38.344c0 8.25 7.317 11.995 15 15zm217.024 7.5 19.172-7.5c7.683-3.005 15-6.751 15-15v-38.344c0-8.249-6.75-15-15-15h-19.172z" fill="#fbf2e2"/><path d="m191.138 321.919c38.488 44.503 91.236 44.503 129.724 0v-50.556l-28.057 28.056h-73.609l-28.057-28.056v50.556z" fill="#fbf2e2"/><path d="m116.139 427.806h279.723v76.694h-279.723z" fill="#efc17a"/><path d="m350.861 427.806h30v-99.982l-30-2.953zm-219.723 0h30v-102.934l-30 2.953z" fill="#e68f5e"/><path d="m395.861 427.806v76.694h80.26v-96.014c0-43.486-35.791-74.807-79.067-79.067l-16.193-1.594v99.982h15zm-234.722 0h189.723v-102.934l-30-2.953c-38.488 44.503-91.236 44.503-129.724 0l-30 2.953v102.934zm-125.261 76.694h80.26v-76.694h15v-99.982l-16.193 1.594c-43.276 4.26-79.067 35.581-79.067 79.067z" fill="#e46a4a"/><path d="m229.609 7.5h-22.5c-27.52 0-50.036 22.516-50.036 50.036v50.036h22.5v-50.036c0-27.52 22.516-50.036 50.036-50.036z" fill="#a5572b"/><path d="m157.074 147.418 22.499-17.918v-21.928h-22.499z" fill="#a5572b"/><path d="m219.195 299.419h22.5l-62.122-62.119v-41.2l-22.499-48.682v89.882z" fill="#a5572b"/><path d="m354.926 205.915 15-5.868v-69.976h-15zm-217.024-7.5 15 5.837c-7.683-3.005-15-6.752-15-15v-44.181c0-8.248 6.752-15 15-15h-15c-8.249 0-15 6.75-15 15v38.344c0 8.25 7.317 11.995 15 15z" fill="#f7e0ba"/><path d="m191.138 321.919c4.797 5.547 9.815 10.401 15 14.565v-50.121l-15-14.999z" fill="#f7e0ba"/><path d="m35.878 504.5h22.5v-96.014c0-41.354 32.368-71.705 72.76-78.245v-2.416l-16.193 1.594c-43.276 4.26-79.067 35.581-79.067 79.067z" fill="#db380e"/><path d="m350.861 427.806h15v-101.458l-15-1.476zm-219.723 0h15v-101.458l-15 1.477z" fill="#a5572b"/><path d="m116.139 427.806h22.5v76.694h-22.5z" fill="#e39c2d"/><path d="m189.196 216.92 18.814-8.04-34.26-74.743-16.676 13.281z" fill="#f7e0ba"/></g><g><path d="m373.362 465.306h-15v-15h15zm80.26-26.82h-15v-15h15zm0-30.001h-15c0-18.613-12.593-35.096-30.623-40.084l4-14.457c24.507 6.781 41.623 29.209 41.623 54.541zm-121.195-363.485h-15v-15h15z" fill="#fff"/></g></g><g><path d="m397.789 321.955-69.428-6.833v-40.652l34.065-34.064v-29.372l14.404-5.635c6.416-2.51 19.768-7.733 19.768-21.984v-38.344c0-12.426-10.074-22.5-22.5-22.5h-11.672v-65.035-57.536h-73.909v15h58.909v42.536c0 23.492-19.044 42.536-42.536 42.536h-140.317v-42.536c0-23.492 19.044-42.536 42.536-42.536h66.408v-15h-66.408c-31.776 0-57.536 25.76-57.536 57.536v65.035h-11.672c-12.426 0-22.5 10.074-22.5 22.5v38.344c0 14.251 13.352 19.475 19.768 21.984l14.404 5.635v29.372l34.065 34.064v40.651l-69.428 6.833c-49.735 4.896-85.833 41.288-85.833 86.531h15c0-37.365 30.407-67.479 72.302-71.603l7.959-.783v69.208h15v-70.684l15-1.477v72.161h15v-73.637l19.445-1.914c19.811 21.628 43.22 33.04 67.917 33.04s48.105-11.412 67.917-33.04l19.445 1.914v73.637h15v-72.161l15 1.477v70.684h15v-69.208l7.959.783c41.895 4.124 72.302 34.237 72.302 71.603v88.515h-25.13v15h40.13v-103.515c-.001-45.243-36.099-81.635-85.834-86.53zm-52.14-172.338-26.407 57.137-24.666-12.333h-71.813l-29.814 12.74-26.596-57.544 43.379-34.545h92.54zm28.45-12.046c4.142 0 7.5 3.358 7.5 7.5v38.344c0 2.542-1.674 4.667-10.232 8.016l-8.939 3.497v-57.357zm-26.672-41.332v35.619l-24.665-19.642c9.563-3.133 18.036-8.698 24.665-15.977zm-161.774 18.833-21.079 16.786v-16.786zm-45.019 76.359c-8.559-3.348-10.232-5.474-10.232-8.016v-38.344c0-4.142 3.358-7.5 7.5-7.5h11.672v57.357zm115.366 156.365c-20.564 0-40.348-9.921-57.361-28.721v-29.605l17.45 17.449h32.411v-15h-26.198l-57.729-57.726v-52.671l20.87 45.157 40.389-17.259h65.202l35.334 17.666 21.059-45.564v52.671l-57.729 57.726h-26.198v15h32.411l17.45-17.449v29.605c-17.013 18.8-36.797 28.721-57.361 28.721z"/><path d="m236 224.42h40v15h-40z"/><path d="m403.361 420.306h-139.861v15h124.861v61.694h-264.722v-61.694h124.861v-15h-139.861v76.694h-65.261v-73.515h-15v88.515h400.113v-15h-25.13z"/></g></g></svg>