<svg id="Layer_1" enable-background="new 0 0 512.052 512.052" height="512" viewBox="0 0 512.052 512.052" width="512" xmlns="http://www.w3.org/2000/svg"><g><g clip-rule="evenodd" fill-rule="evenodd"><g><path d="m158.692 94.77c25.982-11.381 60.043-18.281 97.334-18.281s71.352 6.9 97.334 18.281l-14.216-45.396c-11.794-37.659-40.455-39.324-83.118-39.324s-71.324 1.665-83.118 39.324z" fill="#f0e6e2"/><path d="m256.026 76.489c-37.291 0-71.352 6.9-97.334 18.281-30.815 13.498-50.266 33.298-50.266 55.365 0 14.415 8.478 28.512 24.381 40.544.068-12.067 9.944-21.918 22.006-21.918h4.225c0-40.648 55.951-52.27 96.989-52.27s96.989 11.623 96.989 52.27h4.224c12.062 0 21.938 9.851 22.006 21.918 15.902-12.032 24.381-26.129 24.381-40.544 0-22.067-19.452-41.867-50.266-55.365-25.983-11.38-60.044-18.281-97.335-18.281z" fill="#e6d5cf"/><path d="m256.026 116.491c-41.038 0-96.989 11.623-96.989 52.27 28.061 0 74.753-10.756 96.989-49.27 22.236 38.514 68.928 49.27 96.989 49.27 0-40.648-55.951-52.27-96.989-52.27z" fill="#c68a65"/><path d="m256.026 119.491c-22.236 38.514-68.928 49.27-96.989 49.27h-4.225c-12.062 0-21.938 9.851-22.006 21.918v.125c0 6.059 2.473 11.567 6.458 15.561 3.989 3.999 9.493 6.481 15.548 6.481h4.225c.001 53.344 61.72 96.989 96.989 96.989s96.988-43.645 96.989-96.989h4.224c6.055 0 11.559-2.482 15.548-6.481 3.985-3.995 6.458-9.503 6.458-15.561 0-.042 0-.084 0-.125-.068-12.067-9.944-21.918-22.006-21.918h-4.224c-28.061 0-74.753-10.756-96.989-49.27z" fill="#ffdcd5"/><path d="m216.026 299.957v-2.935c-29.033-16.767-56.989-48.274-56.989-84.175h-4.225c-6.055 0-11.559-2.482-15.548-6.481-13.363 13.892-18.463 30.392-9.463 51.392s6.116 38.283-9.901 54.3c-17.517 17.517-25.048 49.987 16.126 69.994l79.999-26.923v-55.172z" fill="#c68a65"/><path d="m296.026 299.957v55.172l79.999 26.923c41.174-20.006 33.643-52.476 16.126-69.994-16.017-16.017-18.901-33.3-9.901-54.3s3.9-37.5-9.463-51.392c-3.989 3.999-9.494 6.481-15.548 6.481h-4.224c0 35.901-27.956 67.408-56.989 84.175z" fill="#c68a65"/><circle cx="163.698" cy="62.495" fill="#ffc144" r="22.5"/></g><g><path d="m296.026 355.129v-58.107c-14.107 8.147-28.468 12.814-40 12.814-11.533 0-25.894-4.667-40-12.813v58.106l-79.999 26.923c-23.937 8.056-42.13 21.721-51.917 41.859 56.536 11.865 114.148 17.845 171.917 17.845 10.28 0 20.56-.189 30.834-.568.841-1.438 1.876-2.791 3.105-4.02l8.081-8.081-8.081-8.081c-7.778-7.778-7.778-20.506 0-28.284s20.506-7.778 28.284 0l8.081 8.081 8.081-8.081c7.778-7.778 20.506-7.778 28.284 0s7.778 20.506 0 28.284l-8.081 8.081 6.098 6.098c22.553-2.843 44.982-6.604 67.229-11.272-9.787-20.139-27.98-33.804-51.917-41.86z" fill="#ffdcd5"/><path d="m256.026 441.755c-57.768 0-115.381-5.98-171.916-17.845-5.251 10.806-8.083 23.475-8.083 38.141v40h359.997v-40c0-14.666-2.831-27.335-8.083-38.14-22.247 4.668-44.676 8.428-67.229 11.272l1.983 1.983c7.778 7.778 7.778 20.506 0 28.284s-20.506 7.778-28.284 0l-8.081-8.081-8.081 8.081c-7.778 7.778-20.506 7.778-28.284 0-6.549-6.549-7.584-16.606-3.105-24.264-10.274.38-20.554.569-30.834.569z" fill="#60a4ff"/><path d="m289.966 392.72c-7.778 7.779-7.778 20.506 0 28.284l8.081 8.081-8.081 8.081c-1.229 1.229-2.265 2.583-3.105 4.02-4.478 7.658-3.443 17.715 3.105 24.264 7.779 7.778 20.506 7.778 28.284 0l8.081-8.081 8.081 8.081c7.778 7.778 20.506 7.778 28.284 0 7.779-7.778 7.779-20.506 0-28.284l-1.983-1.983-6.098-6.098 8.081-8.081c7.778-7.778 7.778-20.506 0-28.284-7.778-7.779-20.506-7.779-28.284 0l-8.081 8.081-8.081-8.081c-7.778-7.778-20.506-7.778-28.284 0zm22.223 22.223c7.811-7.81 20.474-7.81 28.285 0 7.81 7.811 7.81 20.474 0 28.285-7.811 7.81-20.474 7.81-28.285 0-7.811-7.811-7.811-20.474 0-28.285z" fill="#faf7f6"/><circle cx="326.331" cy="429.086" fill="#ffc144" r="20"/></g></g><g><path d="m397.452 380.261c12.255-10.185 16.736-21.24 18.159-29.716 2.626-15.639-3.501-32.67-16.389-45.559-12.92-12.921-15.247-25.867-7.78-43.289 8.765-20.453 6.76-39.211-5.94-55.864 1.637-3.073 2.789-6.444 3.351-10.007 46.295-38.953 22.568-85.862-27.291-108.326l-12.875-41.114c-13.376-43.846-50.35-46.875-92.661-46.335-32.728-.001-66.467 0-84.63 28.562-4.24-5.362-13.17-4.547-16.392 1.438-3-1.755-6.832-1.894-10.056-.031-3.226 1.862-5.021 5.25-5.001 8.725-3.475-.019-6.863 1.775-8.725 5.001-1.862 3.225-1.722 7.056.032 10.056-6.688 3.679-6.685 13.71 0 17.386-1.754 3-1.893 6.83-.031 10.055s5.248 5.022 8.725 5.002c-.011 2.04.603 4.049 1.764 5.737-3.446 1.904-6.729 3.903-9.838 5.992-40.224 26.141-45.28 68.08-8.674 97.851.563 3.564 1.714 6.934 3.351 10.007-33.448 45.939 20.616 64.619-13.721 99.154-21.808 22.84-24.399 52.947 1.769 75.275-31.869 16.576-48.572 44.525-48.572 81.791v40c0 5.522 4.477 10 10 10h359.998c5.523 0 10-4.478 10-10v-40c0-37.266-16.703-65.215-48.573-81.791zm14.294 36.701c-12.632 2.42-25.389 4.558-38.125 6.39 6.169-9.374 6.535-21.473 1.098-31.172 16.124 5.722 28.483 14.005 37.027 24.782zm-56.121-17.17c3.847 3.683 3.848 10.458 0 14.142l-2.222 2.221c-1.428-2.997-3.381-5.805-5.859-8.283s-5.286-4.431-8.284-5.859l2.222-2.222c3.899-3.898 10.244-3.897 14.143.001zm-22.223 36.364c-3.722 3.879-10.42 3.879-14.142 0-3.88-3.721-3.88-10.42 0-14.142 3.722-3.879 10.42-3.879 14.142 0 3.88 3.723 3.88 10.421 0 14.142zm-28.285-28.284c-2.478 2.478-4.431 5.286-5.859 8.283l-2.221-2.221c-3.899-3.898-3.899-10.243 0-14.142l-7.071-7.072 7.071 7.071c3.899-3.896 10.243-3.898 14.142 0l2.222 2.222c-2.997 1.428-5.805 3.381-8.284 5.859zm-8.08 36.365 2.221-2.222c1.428 2.997 3.381 5.805 5.859 8.283s5.286 4.431 8.283 5.859l-2.221 2.221c-3.898 3.898-10.243 3.898-14.143 0-3.847-3.683-3.846-10.456.001-14.141zm50.508 6.062c2.478-2.478 4.431-5.286 5.859-8.283l2.222 2.222c3.848 3.683 3.848 10.458 0 14.141-3.898 3.897-10.243 3.899-14.142 0l-2.221-2.221c2.996-1.428 5.803-3.381 8.282-5.859zm48.343-103.066c-1.535 9.141-8.66 17.384-20.685 23.991l-69.177-23.28v-45.259c28.671-17.598 53.718-50.356 56.414-80.261 2.983-.49 5.829-1.394 8.476-2.652 7.085 10.324 7.697 21.09 2.144 34.046-10.757 25.101-6.825 46.463 12.021 65.311 8.324 8.324 12.364 18.83 10.807 28.104zm-194.95-73.373c-11.914-10.557-31.9-32.521-31.901-61.014 0-5.523-4.477-10-10-10h-4.225c-6.165 0-11.258-4.685-11.93-10.691.122-.898.12-1.805-.001-2.697.669-6.01 5.764-10.698 11.931-10.698h4.225c30.443 0 71.893-11.208 96.989-41.768 25.096 30.56 66.545 41.768 96.989 41.768h4.225c6.167 0 11.262 4.688 11.931 10.698-.121.891-.122 1.798-.001 2.696-.672 6.007-5.766 10.692-11.93 10.692h-4.225c-5.523 0-10 4.477-10 10 0 28.492-19.987 50.457-31.901 61.014-17.533 15.536-39.671 25.975-55.088 25.975s-37.555-10.438-55.088-25.975zm-29.896-115.728c7.8-19.255 37.181-28.367 67-30.89-17.669 19.455-44.218 28.548-67 30.89zm102.967-30.891c29.846 2.521 59.174 11.64 66.989 30.89-22.781-2.344-49.323-11.435-66.989-30.89zm-122.811-64.746c0-6.893 5.607-12.5 12.5-12.5 16.583.687 16.578 24.316 0 25-6.893 0-12.5-5.607-12.5-12.5zm-8.172 52.081c17.172-11.537 41.925-20.324 69.699-24.741 5.454-.867 9.173-5.992 8.305-11.446-.868-5.455-5.989-9.18-11.447-8.306-4.359.693-8.636 1.479-12.823 2.356-.176-.43-.383-.848-.618-1.251 6.688-3.679 6.684-13.71 0-17.386 1.755-3 1.894-6.831.031-10.057-1.656-2.868-4.518-4.605-7.576-4.941 10.97-16.821 30.404-18.754 67.429-18.754 45.091 0 64.371 2.923 73.574 32.312l8.11 25.897c-10.951-3.443-22.764-6.192-35.249-8.177-13.187-1.57-16.151 17.157-3.141 19.752 35.18 5.589 92.261 23.957 94.306 60.3-.001 8.813-4.302 16.548-9.807 22.837-4.886-7.275-12.669-12.444-21.682-13.836-11.331-70.78-200.734-70.849-212.216-.002-9.016 1.39-16.803 6.56-21.689 13.837-20.047-22.328-6.28-44.689 14.794-58.394zm-16.054 204.553c18.846-18.848 22.778-40.21 12.021-65.311-5.553-12.957-4.941-23.722 2.144-34.046 2.647 1.257 5.492 2.162 8.475 2.652 2.689 29.896 27.75 62.672 56.414 80.261v45.259l-69.177 23.28c-23.63-12.416-27.875-33.557-9.877-52.095zm12.244 72.399 79.999-26.922c4.07-1.369 6.811-5.184 6.811-9.478v-41.983c21.609 8.852 38.391 8.852 60 0v41.983c0 4.294 2.741 8.108 6.811 9.478l43.779 14.733c-3.37 1.457-6.525 3.56-9.275 6.309l-1.01 1.01-1.01-1.01c-11.697-11.695-30.729-11.694-42.426.001-11.697 11.697-11.697 30.729 0 42.427l1.009 1.01-1.01 1.01c-.41.41-.807.831-1.19 1.26-60.718 1.893-121.721-2.961-181.399-14.394 8.874-11.193 21.863-19.696 38.911-25.434zm-53.189 70.524c0-9.776 1.403-18.674 4.198-26.682 60.435 12.056 122.304 17.514 183.909 16.191.237 26.535 32.387 39.639 51.187 20.961l1.01-1.01 1.01 1.01c9.22 9.219 22.997 11.171 34.147 5.857 1.284 4.215 1.92 8.857 1.864 13.673h-214.652c-.097-8.369 1.896-16.215 5.743-22.203 6.726-11.447-9.222-21.682-16.828-10.809-5.892 9.172-8.987 20.837-8.906 33.012h-42.682zm339.998 30h-42.682c.071-10.723-2.322-21.05-6.919-29.628 2.421-6.001 2.769-13.159.958-19.407 14.866-2.154 29.754-4.715 44.445-7.646 2.795 8.007 4.198 16.906 4.198 26.682z"/><path d="m256.026 86.489c13.268-.528 13.258-19.476 0-20h-.008c-13.268.531-13.25 19.479.008 20z"/><path d="m278.528 203.201c4.783 2.762 10.899 1.123 13.66-3.66 1.566-2.914 6.113-2.914 7.679 0 2.778 4.827 8.962 6.397 13.66 3.66 4.783-2.761 6.422-8.877 3.661-13.66-9.191-16.186-33.135-16.181-42.321 0-2.762 4.783-1.123 10.9 3.661 13.66z"/><path d="m237.185 189.542c-9.189-16.188-33.134-16.182-42.321-.001-2.761 4.783-1.122 10.899 3.661 13.66 4.783 2.762 10.899 1.123 13.66-3.66 1.567-2.913 6.111-2.914 7.678-.001 2.777 4.828 8.961 6.397 13.66 3.662 4.783-2.76 6.423-8.877 3.662-13.66z"/><path d="m278.096 239.194c3.905-3.904 3.906-10.236.001-14.142-3.905-3.905-10.236-3.905-14.143-.001-4.175 4.35-11.684 4.35-15.858 0-3.905-3.906-10.237-3.905-14.143.001-3.905 3.905-3.904 10.237.001 14.142 11.621 12.109 32.523 12.109 44.142 0z"/></g></g></svg>